# xmcd
#
# Track frame offsets:
#	150
#	24131
#	36443
#	58124
#	76810
#	93017
#	108992
#	121171
#	134735
#	146900
#	160275
#	173438
#	190145
#	202236
#	216834
#
# Disc length: 3088 seconds
#
# Revision: 0
# Processed by: cddbd v1.5.2PL0 Copyright (c) Steve Scherf et al.
# Submitted via: EasyCDDAExtractor 16.0.6.1
#
DISCID=d00c0e0f
DTITLE=Συλλογικός δίσκος - Πολίτικο γλέντι 2
DYEAR=2013
DGENRE=Παραδοσιακή
TTITLE0=Αηδονίδης Χρόνης - Τρία καράβια πάνε [παραδοσιακό]
TTITLE1=Άνευ ερμηνευτού - Πολίτικος μπάλλος [παρ., ακορ. Λάζαρος Κουλαξίζης]
TTITLE2=Λάλεζας Παναγιώτης - Έμμορφη, γλυκειά Πολίτισσά μου [παραδοσιακό]
TTITLE3=Αλούπης Τάσος - Κωνσταντινιά [παραδοσιακό]
TTITLE4=Σινόπουλος Σωκράτης - Συρτό αζιζιέ [παραδοσιακό]
TTITLE5=Μπαραμπούτης Βασίλης - Γιαλό, γιαλό [παραδοσιακό]
TTITLE6=Λάλεζας Παναγιώτης - Δεν πάγω πια στον Γαλατά [παραδοσιακό]
TTITLE7=Παπαδοπούλου Κατερίνα - Κυρά κι αρχοντοπούλα [παραδοσιακό]
TTITLE8=Ράλλης Στράτης - Σηλυβριανό [παραδοσιακό]
TTITLE9=Παπαδοπούλου Κατερίνα - Τι έχεις Θεοφανίτσα μου [παραδοσιακό]
TTITLE10=Άνευ ερμηνευτού - Μπέϊκος [παρ., ακορ. Λάζαρος Κουλαξίζης]
TTITLE11=Αηδονίδης Χρόνης - Τσανακαλιώτισσα [παραδοσιακό]
TTITLE12=Μπαραμπούτης Βασίλης - Νταγιάντισε καρδούλα μου [παραδοσιακό]
TTITLE13=Παπαδοπούλου Κατερίνα - Σύρτε μάτια μ' [παραδοσιακό]
TTITLE14=Λάλεζας Παναγιώτης - Γαλάτ μανές [παραδοσιακό]
EXTD=
EXTT0=
EXTT1=
EXTT2=
EXTT3=
EXTT4=
EXTT5=
EXTT6=
EXTT7=
EXTT8=
EXTT9=
EXTT10=
EXTT11=
EXTT12=
EXTT13=
EXTT14=
PLAYORDER=
